<svg width="140" height="81" viewBox="0 0 140 81" fill="none" xmlns="http://www.w3.org/2000/svg">
<path d="M28.7 31.6L29.1878 31.7098L29.1884 31.7072L28.7 31.6ZM31.3 24.7L31.7274 24.9595L31.7313 24.9529L31.3 24.7ZM35.3 20.3L35.5732 20.7188L35.5774 20.716L35.3 20.3ZM45.8 20.3L45.5145 20.7104L45.5246 20.7175L45.535 20.724L45.8 20.3ZM49.9 24.7L49.4686 24.9529L49.4726 24.9595L49.9 24.7ZM52.5 31.6L52.0116 31.7072L52.0122 31.7098L52.5 31.6ZM52.5 49.5L52.9878 49.6098L52.9884 49.6072L52.5 49.5ZM49.9 56.4L50.3274 56.6595L50.3314 56.6529L49.9 56.4ZM45.8 60.8L46.0731 61.2188L46.0774 61.216L45.8 60.8ZM35.3 60.8L35.0145 61.2105L35.0246 61.2175L35.035 61.224L35.3 60.8ZM31.3 56.4L30.8686 56.6529L30.8726 56.6595L31.3 56.4ZM28.7 49.5L28.2116 49.6072L28.2122 49.6098L28.7 49.5ZM15.1 60L14.6431 60.2031L14.6452 60.2077L15.1 60ZM25.4 72.5L25.1226 72.916L25.1271 72.9189L25.4 72.5ZM56.1 72.5L56.3759 72.917L56.3803 72.9141L56.1 72.5ZM66.1 60L65.6431 59.7969L65.641 59.8017L66.1 60ZM66.1 21L65.641 21.1983L65.6431 21.2031L66.1 21ZM56.1 8.6L55.8197 9.01408L55.8241 9.01701L56.1 8.6ZM25.4 8.6L25.673 9.01895L25.6774 9.01602L25.4 8.6ZM15.1 21L14.6452 20.7922L14.6431 20.7969L15.1 21ZM28.3 40.5C28.3 37.2633 28.5973 34.3342 29.1878 31.7098L28.2122 31.4902C27.6027 34.1991 27.3 37.2033 27.3 40.5H28.3ZM29.1884 31.7072C29.7797 29.0133 30.6294 26.768 31.7274 24.9595L30.8726 24.4405C29.704 26.3654 28.8203 28.7201 28.2116 31.4928L29.1884 31.7072ZM31.7313 24.9529C32.8341 23.0716 34.1176 21.6681 35.5731 20.7188L35.0269 19.8812C33.4157 20.9319 32.0325 22.4617 30.8687 24.4471L31.7313 24.9529ZM35.5774 20.716C37.0947 19.7044 38.7648 19.2 40.6 19.2V18.2C38.5685 18.2 36.7053 18.7622 35.0227 19.884L35.5774 20.716ZM40.6 19.2C42.4351 19.2 44.068 19.7042 45.5145 20.7104L46.0855 19.8895C44.4653 18.7624 42.6316 18.2 40.6 18.2V19.2ZM45.535 20.724C47.0548 21.6739 48.3685 23.0761 49.4687 24.9529L50.3314 24.4471C49.1648 22.4572 47.7452 20.9261 46.065 19.876L45.535 20.724ZM49.4726 24.9595C50.5706 26.768 51.4203 29.0133 52.0116 31.7072L52.9884 31.4928C52.3797 28.7201 51.4961 26.3654 50.3274 24.4405L49.4726 24.9595ZM52.0122 31.7098C52.6027 34.3342 52.9 37.2633 52.9 40.5H53.9C53.9 37.2033 53.5973 34.1991 52.9878 31.4902L52.0122 31.7098ZM52.9 40.5C52.9 43.7364 52.6027 46.6999 52.0116 49.3928L52.9884 49.6072C53.5973 46.8334 53.9 43.7969 53.9 40.5H52.9ZM52.0122 49.3902C51.4211 52.0172 50.5709 54.2668 49.4687 56.1471L50.3314 56.6529C51.4958 54.6665 52.3789 52.3161 52.9878 49.6098L52.0122 49.3902ZM49.4726 56.1405C48.3721 57.9531 47.054 59.3631 45.5227 60.384L46.0774 61.216C47.746 60.1036 49.1613 58.5802 50.3274 56.6595L49.4726 56.1405ZM45.5269 60.3812C44.0794 61.3252 42.4421 61.8 40.6 61.8V62.8C42.6246 62.8 44.4539 62.2748 46.0731 61.2188L45.5269 60.3812ZM40.6 61.8C38.7579 61.8 37.0835 61.3251 35.565 60.376L35.035 61.224C36.7165 62.2749 38.5754 62.8 40.6 62.8V61.8ZM35.5855 60.3895C34.1184 59.3689 32.8306 57.9575 31.7274 56.1405L30.8726 56.6595C32.0361 58.5758 33.415 60.0977 35.0145 61.2105L35.5855 60.3895ZM31.7313 56.1471C30.6291 54.2668 29.7789 52.0172 29.1878 49.3902L28.2122 49.6098C28.8211 52.3161 29.7042 54.6665 30.8687 56.6529L31.7313 56.1471ZM29.1884 49.3928C28.5973 46.6999 28.3 43.7364 28.3 40.5H27.3C27.3 43.7969 27.6027 46.8334 28.2116 49.6072L29.1884 49.3928ZM11 40.5C11 48.1507 12.2078 54.7236 14.6431 60.2031L15.5569 59.7969C13.1922 54.4764 12 48.0493 12 40.5H11ZM14.6452 60.2077C17.1456 65.6817 20.6361 69.925 25.1227 72.916L25.6774 72.084C21.3639 69.2084 17.9877 65.1183 15.5548 59.7923L14.6452 60.2077ZM25.1271 72.9189C29.6157 75.8433 34.779 77.3 40.6 77.3V76.3C34.9543 76.3 29.9843 74.89 25.6729 72.0811L25.1271 72.9189ZM40.6 77.3C46.6825 77.3 51.9486 75.8458 56.3759 72.917L55.8241 72.083C51.5847 74.8875 46.5175 76.3 40.6 76.3V77.3ZM56.3803 72.9141C60.802 69.9209 64.1927 65.6746 66.559 60.1983L65.641 59.8017C63.3406 65.1254 60.0646 69.2125 55.8197 72.0859L56.3803 72.9141ZM66.5569 60.2031C68.9922 54.7236 70.2 48.1507 70.2 40.5H69.2C69.2 48.0493 68.0078 54.4764 65.6431 59.7969L66.5569 60.2031ZM70.2 40.5C70.2 32.8493 68.9922 26.2764 66.5569 20.7969L65.6431 21.2031C68.0078 26.5236 69.2 32.9507 69.2 40.5H70.2ZM66.559 20.8017C64.1924 15.3247 60.8005 11.1101 56.3759 8.18299L55.8241 9.01701C60.0661 11.8232 63.3409 15.8753 65.641 21.1983L66.559 20.8017ZM56.3803 8.18594C51.9525 5.18869 46.6848 3.69999 40.6 3.69999V4.69999C46.5152 4.69999 51.5808 6.14463 55.8197 9.01405L56.3803 8.18594ZM40.6 3.69999C34.7766 3.69999 29.6117 5.19125 25.1227 8.18397L25.6774 9.01602C29.9883 6.14207 34.9567 4.69999 40.6 4.69999V3.69999ZM25.1271 8.18107C20.6376 11.106 17.146 15.3176 14.6452 20.7923L15.5548 21.2077C17.9874 15.8824 21.3624 11.8273 25.6729 9.01893L25.1271 8.18107ZM14.6431 20.7969C12.2078 26.2764 11 32.8493 11 40.5H12C12 32.9507 13.1922 26.5236 15.5569 21.2031L14.6431 20.7969ZM87.5109 25.7H87.0109V26.3395L87.6315 26.1852L87.5109 25.7ZM104.811 21.4H105.311V20.7605L104.69 20.9148L104.811 21.4ZM104.811 75.5H104.311V76H104.811V75.5ZM121.111 75.5V76H121.611V75.5H121.111ZM121.111 4.19999H121.611V3.58867L121.012 3.70993L121.111 4.19999ZM87.5109 11L87.4118 10.5099L87.0109 10.591V11H87.5109ZM87.6315 26.1852L104.932 21.8852L104.69 20.9148L87.3903 25.2148L87.6315 26.1852ZM104.311 21.4V75.5H105.311V21.4H104.311ZM104.811 76H121.111V75H104.811V76ZM121.611 75.5V4.19999H120.611V75.5H121.611ZM121.012 3.70993L87.4118 10.5099L87.6101 11.4901L121.21 4.69006L121.012 3.70993ZM87.0109 11V25.7H88.0109V11H87.0109Z" fill="url(#paint0_linear_821_112)"/>
<defs>
<linearGradient id="paint0_linear_821_112" x1="70" y1="-24.5" x2="70.2802" y2="85.5664" gradientUnits="userSpaceOnUse">
<stop offset="0.229167" stop-color="#828282"/>
<stop offset="1" stop-color="#333333" stop-opacity="0"/>
</linearGradient>
</defs>
</svg>
