<svg width="140" height="81" viewBox="0 0 140 81" fill="none" xmlns="http://www.w3.org/2000/svg">
<path d="M21.7 31.6L22.1878 31.7098L22.1884 31.7072L21.7 31.6ZM24.3 24.7L24.7274 24.9595L24.7313 24.9529L24.3 24.7ZM28.3 20.3L28.5732 20.7188L28.5774 20.716L28.3 20.3ZM38.8 20.3L38.5145 20.7104L38.5246 20.7175L38.535 20.724L38.8 20.3ZM42.9 24.7L42.4686 24.9529L42.4726 24.9595L42.9 24.7ZM45.5 31.6L45.0116 31.7072L45.0122 31.7098L45.5 31.6ZM45.5 49.5L45.9878 49.6098L45.9884 49.6072L45.5 49.5ZM42.9 56.4L43.3274 56.6595L43.3314 56.6529L42.9 56.4ZM38.8 60.8L39.0731 61.2188L39.0774 61.216L38.8 60.8ZM28.3 60.8L28.0145 61.2105L28.0246 61.2175L28.035 61.224L28.3 60.8ZM24.3 56.4L23.8686 56.6529L23.8726 56.6595L24.3 56.4ZM21.7 49.5L21.2116 49.6072L21.2122 49.6098L21.7 49.5ZM8.1 60L7.64307 60.2031L7.6452 60.2077L8.1 60ZM18.4 72.5L18.1226 72.916L18.1271 72.9189L18.4 72.5ZM49.1 72.5L49.3759 72.917L49.3803 72.9141L49.1 72.5ZM59.1 60L58.6431 59.7969L58.641 59.8017L59.1 60ZM59.1 21L58.641 21.1983L58.6431 21.2031L59.1 21ZM49.1 8.6L48.8197 9.01408L48.8241 9.01701L49.1 8.6ZM18.4 8.6L18.673 9.01895L18.6774 9.01602L18.4 8.6ZM8.1 21L7.64518 20.7922L7.64309 20.7969L8.1 21ZM21.3 40.5C21.3 37.2633 21.5973 34.3342 22.1878 31.7098L21.2122 31.4902C20.6027 34.1991 20.3 37.2033 20.3 40.5H21.3ZM22.1884 31.7072C22.7797 29.0133 23.6294 26.768 24.7274 24.9595L23.8726 24.4405C22.704 26.3654 21.8203 28.7201 21.2116 31.4928L22.1884 31.7072ZM24.7313 24.9529C25.8341 23.0716 27.1176 21.6681 28.5731 20.7188L28.0269 19.8812C26.4157 20.9319 25.0325 22.4617 23.8687 24.4471L24.7313 24.9529ZM28.5774 20.716C30.0947 19.7044 31.7648 19.2 33.6 19.2V18.2C31.5685 18.2 29.7053 18.7622 28.0227 19.884L28.5774 20.716ZM33.6 19.2C35.4351 19.2 37.068 19.7042 38.5145 20.7104L39.0855 19.8895C37.4653 18.7624 35.6316 18.2 33.6 18.2V19.2ZM38.535 20.724C40.0548 21.6739 41.3685 23.0761 42.4687 24.9529L43.3314 24.4471C42.1648 22.4572 40.7452 20.9261 39.065 19.876L38.535 20.724ZM42.4726 24.9595C43.5706 26.768 44.4203 29.0133 45.0116 31.7072L45.9884 31.4928C45.3797 28.7201 44.4961 26.3654 43.3274 24.4405L42.4726 24.9595ZM45.0122 31.7098C45.6027 34.3342 45.9 37.2633 45.9 40.5H46.9C46.9 37.2033 46.5973 34.1991 45.9878 31.4902L45.0122 31.7098ZM45.9 40.5C45.9 43.7364 45.6027 46.6999 45.0116 49.3928L45.9884 49.6072C46.5973 46.8334 46.9 43.7969 46.9 40.5H45.9ZM45.0122 49.3902C44.4211 52.0172 43.5709 54.2668 42.4687 56.1471L43.3314 56.6529C44.4958 54.6665 45.3789 52.3161 45.9878 49.6098L45.0122 49.3902ZM42.4726 56.1405C41.3721 57.9531 40.054 59.3631 38.5227 60.384L39.0774 61.216C40.746 60.1036 42.1613 58.5802 43.3274 56.6595L42.4726 56.1405ZM38.5269 60.3812C37.0794 61.3252 35.4421 61.8 33.6 61.8V62.8C35.6246 62.8 37.4539 62.2748 39.0731 61.2188L38.5269 60.3812ZM33.6 61.8C31.7579 61.8 30.0835 61.3251 28.565 60.376L28.035 61.224C29.7165 62.2749 31.5754 62.8 33.6 62.8V61.8ZM28.5855 60.3895C27.1184 59.3689 25.8306 57.9575 24.7274 56.1405L23.8726 56.6595C25.0361 58.5758 26.415 60.0977 28.0145 61.2105L28.5855 60.3895ZM24.7313 56.1471C23.6291 54.2668 22.7789 52.0172 22.1878 49.3902L21.2122 49.6098C21.8211 52.3161 22.7042 54.6665 23.8687 56.6529L24.7313 56.1471ZM22.1884 49.3928C21.5973 46.6999 21.3 43.7364 21.3 40.5H20.3C20.3 43.7969 20.6027 46.8334 21.2116 49.6072L22.1884 49.3928ZM4 40.5C4 48.1507 5.20779 54.7236 7.64309 60.2031L8.55691 59.7969C6.19221 54.4764 5 48.0493 5 40.5H4ZM7.6452 60.2077C10.1456 65.6817 13.6361 69.925 18.1227 72.916L18.6774 72.084C14.3639 69.2084 10.9877 65.1183 8.5548 59.7923L7.6452 60.2077ZM18.1271 72.9189C22.6157 75.8433 27.779 77.3 33.6 77.3V76.3C27.9543 76.3 22.9843 74.89 18.6729 72.0811L18.1271 72.9189ZM33.6 77.3C39.6825 77.3 44.9486 75.8458 49.3759 72.917L48.8241 72.083C44.5847 74.8875 39.5175 76.3 33.6 76.3V77.3ZM49.3803 72.9141C53.802 69.9209 57.1927 65.6746 59.559 60.1983L58.641 59.8017C56.3406 65.1254 53.0646 69.2125 48.8197 72.0859L49.3803 72.9141ZM59.5569 60.2031C61.9922 54.7236 63.2 48.1507 63.2 40.5H62.2C62.2 48.0493 61.0078 54.4764 58.6431 59.7969L59.5569 60.2031ZM63.2 40.5C63.2 32.8493 61.9922 26.2764 59.5569 20.7969L58.6431 21.2031C61.0078 26.5236 62.2 32.9507 62.2 40.5H63.2ZM59.559 20.8017C57.1924 15.3247 53.8005 11.1101 49.3759 8.18299L48.8241 9.01701C53.0661 11.8232 56.3409 15.8753 58.641 21.1983L59.559 20.8017ZM49.3803 8.18594C44.9525 5.18869 39.6848 3.69999 33.6 3.69999V4.69999C39.5152 4.69999 44.5808 6.14463 48.8197 9.01405L49.3803 8.18594ZM33.6 3.69999C27.7766 3.69999 22.6117 5.19125 18.1227 8.18397L18.6774 9.01602C22.9883 6.14207 27.9567 4.69999 33.6 4.69999V3.69999ZM18.1271 8.18107C13.6376 11.106 10.146 15.3176 7.6452 20.7923L8.5548 21.2077C10.9874 15.8824 14.3624 11.8273 18.6729 9.01893L18.1271 8.18107ZM7.64309 20.7969C5.20779 26.2764 4 32.8493 4 40.5H5C5 32.9507 6.19221 26.5236 8.55691 21.2031L7.64309 20.7969ZM75.7109 75.5L75.3513 75.1526L74.5328 76H75.7109V75.5ZM135.011 75.5V76H135.511V75.5H135.011ZM135.011 60H135.511V59.5H135.011V60ZM107.011 60L106.677 59.6276L105.703 60.5H107.011V60ZM123.311 45.4L122.983 45.0221L122.977 45.0276L123.311 45.4ZM130.611 36.8L131.041 37.0559L131.043 37.0519L130.611 36.8ZM131.711 18.4L132.169 18.2002L132.169 18.2002L131.711 18.4ZM126.611 11.3L126.257 11.6536L126.263 11.6589L126.268 11.6641L126.611 11.3ZM118.311 6.1L118.125 6.56431L118.133 6.56739L118.311 6.1ZM91.5109 7.8L91.2577 7.36884L91.2547 7.37064L91.5109 7.8ZM82.2109 17.7L82.6582 17.9236L82.6582 17.9236L82.2109 17.7ZM79.1109 31.4H78.6109V31.9H79.1109V31.4ZM95.7109 31.4V31.9H96.2109V31.4H95.7109ZM96.9109 24.7L96.4547 24.4955L96.4517 24.5021L96.4489 24.5088L96.9109 24.7ZM100.611 20.2L100.341 19.7788L100.334 19.784L100.611 20.2ZM110.511 19.4L110.308 19.8569L110.319 19.8617L110.33 19.866L110.511 19.4ZM113.511 21.4L113.144 21.7391L113.15 21.7465L113.157 21.7536L113.511 21.4ZM115.311 24.2L114.843 24.3756L114.843 24.3756L115.311 24.2ZM114.811 32.7L114.353 32.4986L114.349 32.5077L114.811 32.7ZM111.711 37.6L111.328 37.2783L111.321 37.2877L111.711 37.6ZM106.911 43.2L107.271 43.5474L107.276 43.5414L107.282 43.5351L106.911 43.2ZM75.7109 76H135.011V75H75.7109V76ZM135.511 75.5V60H134.511V75.5H135.511ZM135.011 59.5H107.011V60.5H135.011V59.5ZM107.345 60.3724L123.645 45.7724L122.977 45.0276L106.677 59.6276L107.345 60.3724ZM123.638 45.7778C126.675 43.146 129.144 40.2389 131.04 37.0559L130.181 36.5441C128.344 39.6277 125.947 42.454 122.983 45.0222L123.638 45.7778ZM131.043 37.0519C132.955 33.7734 133.911 30.1861 133.911 26.3H132.911C132.911 30.0139 132 33.4266 130.179 36.5481L131.043 37.0519ZM133.911 26.3C133.911 23.5603 133.328 20.8592 132.169 18.2002L131.253 18.5998C132.36 21.1408 132.911 23.7064 132.911 26.3H133.911ZM132.169 18.2002C131.006 15.5324 129.265 13.1111 126.954 10.9359L126.268 11.6641C128.49 13.7556 130.149 16.0676 131.253 18.5998L132.169 18.2002ZM126.964 10.9464C124.708 8.6897 121.878 6.92071 118.489 5.63261L118.133 6.56739C121.41 7.81262 124.114 9.5103 126.257 11.6536L126.964 10.9464ZM118.497 5.63576C115.093 4.27446 111.195 3.6 106.811 3.6V4.6C111.094 4.6 114.862 5.25887 118.125 6.56424L118.497 5.63576ZM106.811 3.6C100.742 3.6 95.5504 4.84773 91.2577 7.36885L91.7641 8.23114C95.8714 5.81892 100.879 4.6 106.811 4.6V3.6ZM91.2547 7.37064C87.043 9.8841 83.8749 13.254 81.7637 17.4764L82.6582 17.9236C84.6803 13.8793 87.7122 10.6492 91.7672 8.22935L91.2547 7.37064ZM81.7637 17.4764C79.6596 21.6847 78.6109 26.3289 78.6109 31.4H79.6109C79.6109 26.4711 80.629 21.9819 82.6582 17.9236L81.7637 17.4764ZM79.1109 31.9H95.7109V30.9H79.1109V31.9ZM96.2109 31.4C96.2109 28.9188 96.6027 26.7526 97.3729 24.8912L96.4489 24.5088C95.6192 26.5141 95.2109 28.8146 95.2109 31.4H96.2109ZM97.3672 24.9045C98.1994 23.0481 99.3745 21.6252 100.888 20.616L100.334 19.784C98.6474 20.9081 97.3558 22.4852 96.4547 24.4955L97.3672 24.9045ZM100.88 20.6211C102.46 19.61 104.265 19.1 106.311 19.1V18.1C104.09 18.1 102.095 18.6567 100.341 19.7789L100.88 20.6211ZM106.311 19.1C107.856 19.1 109.184 19.3575 110.308 19.8569L110.714 18.9431C109.438 18.3758 107.966 18.1 106.311 18.1V19.1ZM110.33 19.866C111.465 20.3077 112.4 20.9334 113.144 21.7391L113.878 21.0609C113.022 20.1333 111.956 19.4257 110.692 18.934L110.33 19.866ZM113.157 21.7536C113.907 22.5027 114.468 23.3752 114.843 24.3756L115.779 24.0244C115.354 22.8914 114.715 21.8973 113.864 21.0464L113.157 21.7536ZM114.843 24.3756C115.223 25.3899 115.411 26.3973 115.411 27.4H116.411C116.411 26.2694 116.199 25.1434 115.779 24.0244L114.843 24.3756ZM115.411 27.4C115.411 29.1991 115.058 30.897 114.353 32.4986L115.269 32.9014C116.031 31.1696 116.411 29.3342 116.411 27.4H115.411ZM114.349 32.5077C113.706 34.0507 112.703 35.6411 111.328 37.2784L112.094 37.9216C113.518 36.2255 114.582 34.5493 115.272 32.8923L114.349 32.5077ZM111.321 37.2877C109.995 38.9446 108.402 40.8035 106.54 42.8649L107.282 43.5351C109.153 41.4632 110.76 39.5887 112.101 37.9123L111.321 37.2877ZM106.551 42.8526L75.3513 75.1526L76.0706 75.8474L107.271 43.5474L106.551 42.8526Z" fill="url(#paint0_linear_821_108)"/>
<defs>
<linearGradient id="paint0_linear_821_108" x1="70" y1="-24.5" x2="70.2519" y2="85.5665" gradientUnits="userSpaceOnUse">
<stop offset="0.229167" stop-color="#828282"/>
<stop offset="1" stop-color="#333333" stop-opacity="0"/>
</linearGradient>
</defs>
</svg>
