<svg width="140" height="81" viewBox="0 0 140 81" fill="none" xmlns="http://www.w3.org/2000/svg">
<path d="M23.2 31.6L23.6878 31.7098L23.6884 31.7072L23.2 31.6ZM25.8 24.7L26.2274 24.9595L26.2313 24.9529L25.8 24.7ZM29.8 20.3L30.0732 20.7188L30.0774 20.716L29.8 20.3ZM40.3 20.3L40.0145 20.7104L40.0246 20.7175L40.035 20.724L40.3 20.3ZM44.4 24.7L43.9686 24.9529L43.9726 24.9595L44.4 24.7ZM47 31.6L46.5116 31.7072L46.5122 31.7098L47 31.6ZM47 49.5L47.4878 49.6098L47.4884 49.6072L47 49.5ZM44.4 56.4L44.8274 56.6595L44.8314 56.6529L44.4 56.4ZM40.3 60.8L40.5731 61.2188L40.5774 61.216L40.3 60.8ZM29.8 60.8L29.5145 61.2105L29.5246 61.2175L29.535 61.224L29.8 60.8ZM25.8 56.4L25.3686 56.6529L25.3726 56.6595L25.8 56.4ZM23.2 49.5L22.7116 49.6072L22.7122 49.6098L23.2 49.5ZM9.6 60L9.14307 60.2031L9.1452 60.2077L9.6 60ZM19.9 72.5L19.6226 72.916L19.6271 72.9189L19.9 72.5ZM50.6 72.5L50.8759 72.917L50.8803 72.9141L50.6 72.5ZM60.6 60L60.1431 59.7969L60.141 59.8017L60.6 60ZM60.6 21L60.141 21.1983L60.1431 21.2031L60.6 21ZM50.6 8.6L50.3197 9.01408L50.3241 9.01701L50.6 8.6ZM19.9 8.6L20.173 9.01895L20.1774 9.01602L19.9 8.6ZM9.6 21L9.14518 20.7922L9.14309 20.7969L9.6 21ZM22.8 40.5C22.8 37.2633 23.0973 34.3342 23.6878 31.7098L22.7122 31.4902C22.1027 34.1991 21.8 37.2033 21.8 40.5H22.8ZM23.6884 31.7072C24.2797 29.0133 25.1294 26.768 26.2274 24.9595L25.3726 24.4405C24.204 26.3654 23.3203 28.7201 22.7116 31.4928L23.6884 31.7072ZM26.2313 24.9529C27.3341 23.0716 28.6176 21.6681 30.0731 20.7188L29.5269 19.8812C27.9157 20.9319 26.5325 22.4617 25.3687 24.4471L26.2313 24.9529ZM30.0774 20.716C31.5947 19.7044 33.2648 19.2 35.1 19.2V18.2C33.0685 18.2 31.2053 18.7622 29.5227 19.884L30.0774 20.716ZM35.1 19.2C36.9351 19.2 38.568 19.7042 40.0145 20.7104L40.5855 19.8895C38.9653 18.7624 37.1316 18.2 35.1 18.2V19.2ZM40.035 20.724C41.5548 21.6739 42.8685 23.0761 43.9687 24.9529L44.8314 24.4471C43.6648 22.4572 42.2452 20.9261 40.565 19.876L40.035 20.724ZM43.9726 24.9595C45.0706 26.768 45.9203 29.0133 46.5116 31.7072L47.4884 31.4928C46.8797 28.7201 45.9961 26.3654 44.8274 24.4405L43.9726 24.9595ZM46.5122 31.7098C47.1027 34.3342 47.4 37.2633 47.4 40.5H48.4C48.4 37.2033 48.0973 34.1991 47.4878 31.4902L46.5122 31.7098ZM47.4 40.5C47.4 43.7364 47.1027 46.6999 46.5116 49.3928L47.4884 49.6072C48.0973 46.8334 48.4 43.7969 48.4 40.5H47.4ZM46.5122 49.3902C45.9211 52.0172 45.0709 54.2668 43.9687 56.1471L44.8314 56.6529C45.9958 54.6665 46.8789 52.3161 47.4878 49.6098L46.5122 49.3902ZM43.9726 56.1405C42.8721 57.9531 41.554 59.3631 40.0227 60.384L40.5774 61.216C42.246 60.1036 43.6613 58.5802 44.8274 56.6595L43.9726 56.1405ZM40.0269 60.3812C38.5794 61.3252 36.9421 61.8 35.1 61.8V62.8C37.1246 62.8 38.9539 62.2748 40.5731 61.2188L40.0269 60.3812ZM35.1 61.8C33.2579 61.8 31.5835 61.3251 30.065 60.376L29.535 61.224C31.2165 62.2749 33.0754 62.8 35.1 62.8V61.8ZM30.0855 60.3895C28.6184 59.3689 27.3306 57.9575 26.2274 56.1405L25.3726 56.6595C26.5361 58.5758 27.915 60.0977 29.5145 61.2105L30.0855 60.3895ZM26.2313 56.1471C25.1291 54.2668 24.2789 52.0172 23.6878 49.3902L22.7122 49.6098C23.3211 52.3161 24.2042 54.6665 25.3687 56.6529L26.2313 56.1471ZM23.6884 49.3928C23.0973 46.6999 22.8 43.7364 22.8 40.5H21.8C21.8 43.7969 22.1027 46.8334 22.7116 49.6072L23.6884 49.3928ZM5.5 40.5C5.5 48.1507 6.70779 54.7236 9.14309 60.2031L10.0569 59.7969C7.69221 54.4764 6.5 48.0493 6.5 40.5H5.5ZM9.1452 60.2077C11.6456 65.6817 15.1361 69.925 19.6227 72.916L20.1774 72.084C15.8639 69.2084 12.4877 65.1183 10.0548 59.7923L9.1452 60.2077ZM19.6271 72.9189C24.1157 75.8433 29.279 77.3 35.1 77.3V76.3C29.4543 76.3 24.4843 74.89 20.1729 72.0811L19.6271 72.9189ZM35.1 77.3C41.1825 77.3 46.4486 75.8458 50.8759 72.917L50.3241 72.083C46.0847 74.8875 41.0175 76.3 35.1 76.3V77.3ZM50.8803 72.9141C55.302 69.9209 58.6927 65.6746 61.059 60.1983L60.141 59.8017C57.8406 65.1254 54.5646 69.2125 50.3197 72.0859L50.8803 72.9141ZM61.0569 60.2031C63.4922 54.7236 64.7 48.1507 64.7 40.5H63.7C63.7 48.0493 62.5078 54.4764 60.1431 59.7969L61.0569 60.2031ZM64.7 40.5C64.7 32.8493 63.4922 26.2764 61.0569 20.7969L60.1431 21.2031C62.5078 26.5236 63.7 32.9507 63.7 40.5H64.7ZM61.059 20.8017C58.6924 15.3247 55.3005 11.1101 50.8759 8.18299L50.3241 9.01701C54.5661 11.8232 57.8409 15.8753 60.141 21.1983L61.059 20.8017ZM50.8803 8.18594C46.4525 5.18869 41.1848 3.69999 35.1 3.69999V4.69999C41.0152 4.69999 46.0808 6.14463 50.3197 9.01405L50.8803 8.18594ZM35.1 3.69999C29.2766 3.69999 24.1117 5.19125 19.6227 8.18397L20.1774 9.01602C24.4883 6.14207 29.4567 4.69999 35.1 4.69999V3.69999ZM19.6271 8.18107C15.1376 11.106 11.646 15.3176 9.1452 20.7923L10.0548 21.2077C12.4874 15.8824 15.8624 11.8273 20.1729 9.01893L19.6271 8.18107ZM9.14309 20.7969C6.70779 26.2764 5.5 32.8493 5.5 40.5H6.5C6.5 32.9507 7.69221 26.5236 10.0569 21.2031L9.14309 20.7969ZM102.711 41.6H102.211V42.1H102.711V41.6ZM117.711 39.6L117.568 39.1209L117.568 39.1209L117.711 39.6ZM128.311 33.6L127.957 33.2464L127.953 33.2509L128.311 33.6ZM129.411 13.8L128.989 14.0685L128.993 14.0752L129.411 13.8ZM121.111 6.8L121.325 6.34796L121.325 6.34796L121.111 6.8ZM94.7109 7.1L94.9346 7.54726L94.9409 7.544L94.7109 7.1ZM86.0109 14.9L85.586 14.6365L85.5845 14.6389L86.0109 14.9ZM83.0109 26H82.5109V26.5H83.0109V26ZM98.5109 26V26.5H99.0109V26H98.5109ZM101.111 20L100.78 19.6255L100.78 19.6255L101.111 20ZM112.111 18.6L111.877 19.0419L111.887 19.0474L111.898 19.0524L112.111 18.6ZM114.711 21L114.275 21.2451L114.275 21.2451L114.711 21ZM112.011 31.2L111.718 30.7945L111.707 30.8028L112.011 31.2ZM107.911 33.3L108.057 33.7785L108.069 33.7743L107.911 33.3ZM102.711 34V33.5H102.211V34H102.711ZM121.611 74.5L121.807 74.96L121.813 74.9572L121.611 74.5ZM131.011 67.2L131.417 67.4915L131.42 67.4873L131.011 67.2ZM132.011 47.3L131.583 47.5589L131.583 47.5589L132.011 47.3ZM125.411 41.1L125.16 41.5323L125.167 41.5366L125.411 41.1ZM115.311 37.5L115.208 37.9894L115.218 37.9912L115.311 37.5ZM102.711 36.3V35.8H102.211V36.3H102.711ZM102.711 44.9H102.211V45.4H102.711V44.9ZM113.911 47.7L113.604 48.0947L113.616 48.104L113.629 48.1127L113.911 47.7ZM116.711 50.8L116.264 51.0236L116.264 51.0236L116.711 50.8ZM116.311 59.7L115.892 59.4275L115.892 59.4275L116.311 59.7ZM112.711 62.6L112.529 62.1343L112.522 62.1372L112.711 62.6ZM102.111 62.4L101.91 62.8577L101.916 62.8605L102.111 62.4ZM96.6109 53.3H97.1109V52.8H96.6109V53.3ZM80.0109 53.3V52.8H79.5109V53.3H80.0109ZM81.8109 62.2L81.3496 62.3931L81.3536 62.4021L81.8109 62.2ZM87.1109 69.9L86.7573 70.2536L86.7625 70.2586L87.1109 69.9ZM95.6109 75.2L95.4333 75.6674L95.4333 75.6674L95.6109 75.2ZM102.711 42.1C108.284 42.1 113.333 41.4286 117.854 40.0791L117.568 39.1209C113.155 40.4381 108.205 41.1 102.711 41.1V42.1ZM117.854 40.0791C122.382 38.7275 125.996 36.6902 128.669 33.949L127.953 33.2509C125.426 35.8432 121.973 37.8059 117.568 39.1209L117.854 40.0791ZM128.664 33.9536C131.431 31.187 132.811 27.7237 132.811 23.6H131.811C131.811 27.4763 130.524 30.6797 127.957 33.2464L128.664 33.9536ZM132.811 23.6C132.811 19.9047 131.817 16.542 129.828 13.5248L128.993 14.0752C130.872 16.9247 131.811 20.0952 131.811 23.6H132.811ZM129.833 13.5316C127.907 10.5061 125.062 8.11479 121.325 6.34796L120.897 7.25203C124.493 8.95187 127.181 11.2272 128.989 14.0684L129.833 13.5316ZM121.325 6.34796C117.574 4.57508 113.03 3.69999 107.711 3.69999V4.69999C112.925 4.69999 117.314 5.55824 120.897 7.25203L121.325 6.34796ZM107.711 3.69999C102.711 3.69999 98.2968 4.67998 94.481 6.656L94.9409 7.544C98.5918 5.65334 102.844 4.69999 107.711 4.69999V3.69999ZM94.4873 6.65278C90.6767 8.5581 87.7046 11.2194 85.586 14.6365L86.4359 15.1635C88.4506 11.914 91.2785 9.37523 94.9345 7.54721L94.4873 6.65278ZM85.5845 14.6389C83.5326 17.9904 82.5109 21.7821 82.5109 26H83.5109C83.5109 21.9512 84.4893 18.3429 86.4374 15.1611L85.5845 14.6389ZM83.0109 26.5H98.5109V25.5H83.0109V26.5ZM99.0109 26C99.0109 23.6659 99.8239 21.8061 101.442 20.3745L100.78 19.6255C98.9313 21.2606 98.0109 23.4008 98.0109 26H99.0109ZM101.442 20.3745C103.07 18.9342 105.147 18.2 107.711 18.2V17.2C104.942 17.2 102.618 17.9991 100.78 19.6255L101.442 20.3745ZM107.711 18.2C109.46 18.2 110.839 18.4923 111.877 19.0419L112.345 18.1581C111.116 17.5077 109.561 17.2 107.711 17.2V18.2ZM111.898 19.0524C112.94 19.5426 113.727 20.2713 114.275 21.2451L115.147 20.7549C114.495 19.5954 113.549 18.7241 112.324 18.1476L111.898 19.0524ZM114.275 21.2451C114.829 22.2304 115.111 23.3446 115.111 24.6H116.111C116.111 23.1887 115.793 21.903 115.147 20.7549L114.275 21.2451ZM115.111 24.6C115.111 25.7841 114.831 26.9039 114.269 27.9661L115.153 28.4339C115.79 27.2295 116.111 25.9493 116.111 24.6H115.111ZM114.269 27.9661C113.71 29.0218 112.866 29.966 111.718 30.7947L112.304 31.6053C113.556 30.7007 114.512 29.6448 115.153 28.4339L114.269 27.9661ZM111.707 30.8028C110.625 31.6304 109.31 32.3067 107.753 32.8257L108.069 33.7743C109.712 33.2266 111.13 32.5029 112.315 31.5972L111.707 30.8028ZM107.765 32.8217C106.288 33.2714 104.605 33.5 102.711 33.5V34.5C104.684 34.5 106.467 34.262 108.057 33.7783L107.765 32.8217ZM102.211 34V41.6H103.211V34H102.211ZM106.911 77.6C112.693 77.6 117.663 76.7263 121.807 74.96L121.415 74.04C117.426 75.7404 112.596 76.6 106.911 76.6V77.6ZM121.813 74.9572C125.947 73.1276 129.157 70.6426 131.417 67.4915L130.605 66.9085C128.465 69.8908 125.408 72.2724 121.409 74.0428L121.813 74.9572ZM131.42 67.4873C133.683 64.2645 134.811 60.5627 134.811 56.4H133.811C133.811 60.3706 132.739 63.8689 130.602 66.9127L131.42 67.4873ZM134.811 56.4C134.811 52.7931 134.028 49.6664 132.439 47.0411L131.583 47.5589C133.061 50.0002 133.811 52.9402 133.811 56.4H134.811ZM132.439 47.0411C130.856 44.4257 128.589 42.301 125.655 40.6634L125.167 41.5366C127.967 43.099 130.1 45.1076 131.583 47.5589L132.439 47.0411ZM125.662 40.6677C122.738 38.9678 119.316 37.7507 115.404 37.0088L115.218 37.9912C119.039 38.7159 122.35 39.8988 125.16 41.5323L125.662 40.6677ZM115.414 37.0107C111.575 36.2024 107.339 35.8 102.711 35.8V36.8C107.282 36.8 111.447 37.1976 115.208 37.9893L115.414 37.0107ZM102.211 36.3V44.9H103.211V36.3H102.211ZM102.711 45.4C105.215 45.4 107.373 45.6309 109.19 46.0851L109.432 45.1149C107.516 44.6358 105.273 44.4 102.711 44.4V45.4ZM109.19 46.0851C111.006 46.5392 112.471 47.2138 113.604 48.0947L114.218 47.3053C112.95 46.3195 111.349 45.5941 109.432 45.1149L109.19 46.0851ZM113.629 48.1127C114.835 48.9383 115.707 49.91 116.264 51.0236L117.158 50.5764C116.515 49.29 115.52 48.195 114.193 47.2873L113.629 48.1127ZM116.264 51.0236C116.826 52.1479 117.111 53.4036 117.111 54.8H118.111C118.111 53.2631 117.796 51.8521 117.158 50.5764L116.264 51.0236ZM117.111 54.8C117.111 56.6576 116.695 58.1913 115.892 59.4275L116.73 59.9725C117.66 58.5421 118.111 56.809 118.111 54.8H117.111ZM115.892 59.4275C115.084 60.67 113.969 61.571 112.529 62.1344L112.893 63.0656C114.52 62.429 115.804 61.3966 116.73 59.9725L115.892 59.4275ZM112.522 62.1372C111.129 62.7071 109.462 63 107.511 63V64C109.559 64 111.36 63.6929 112.9 63.0628L112.522 62.1372ZM107.511 63C105.712 63 103.978 62.647 102.306 61.9395L101.916 62.8605C103.711 63.6197 105.577 64 107.511 64V63ZM102.312 61.9423C100.735 61.2483 99.477 60.1794 98.5297 58.7269L97.6921 59.2731C98.7449 60.8873 100.154 62.085 101.91 62.8577L102.312 61.9423ZM98.5297 58.7269C97.5941 57.2922 97.1109 55.4928 97.1109 53.3H96.1109C96.1109 55.6405 96.6278 57.6411 97.6921 59.2731L98.5297 58.7269ZM96.6109 52.8H80.0109V53.8H96.6109V52.8ZM79.5109 53.3C79.5109 56.4339 80.1245 59.4661 81.3497 62.3931L82.2722 62.0069C81.0974 59.2006 80.5109 56.2995 80.5109 53.3H79.5109ZM81.3536 62.4021C82.6458 65.3265 84.4481 67.9443 86.7574 70.2536L87.4645 69.5464C85.2405 67.3224 83.5094 64.8068 82.2683 61.9979L81.3536 62.4021ZM86.7625 70.2586C89.1493 72.5772 92.0424 74.3788 95.4333 75.6674L95.7885 74.7326C92.5128 73.4878 89.7392 71.7561 87.4593 69.5414L86.7625 70.2586ZM95.4333 75.6674C98.8325 76.9591 102.661 77.6 106.911 77.6V76.6C102.761 76.6 99.056 75.9743 95.7885 74.7326L95.4333 75.6674Z" fill="url(#paint0_linear_821_114)"/>
<defs>
<linearGradient id="paint0_linear_821_114" x1="70" y1="-24.5" x2="70.2575" y2="85.5665" gradientUnits="userSpaceOnUse">
<stop offset="0.229167" stop-color="#828282"/>
<stop offset="1" stop-color="#333333" stop-opacity="0"/>
</linearGradient>
</defs>
</svg>
