<svg width="140" height="81" viewBox="0 0 140 81" fill="none" xmlns="http://www.w3.org/2000/svg">
<path d="M19.2 31.6L19.6878 31.7098L19.6884 31.7072L19.2 31.6ZM21.8 24.7L22.2274 24.9595L22.2313 24.9529L21.8 24.7ZM25.8 20.3L26.0732 20.7188L26.0774 20.716L25.8 20.3ZM36.3 20.3L36.0145 20.7104L36.0246 20.7175L36.035 20.724L36.3 20.3ZM40.4 24.7L39.9686 24.9529L39.9726 24.9595L40.4 24.7ZM43 31.6L42.5116 31.7072L42.5122 31.7098L43 31.6ZM43 49.5L43.4878 49.6098L43.4884 49.6072L43 49.5ZM40.4 56.4L40.8274 56.6595L40.8314 56.6529L40.4 56.4ZM36.3 60.8L36.5731 61.2188L36.5774 61.216L36.3 60.8ZM25.8 60.8L25.5145 61.2105L25.5246 61.2175L25.535 61.224L25.8 60.8ZM21.8 56.4L21.3686 56.6529L21.3726 56.6595L21.8 56.4ZM19.2 49.5L18.7116 49.6072L18.7122 49.6098L19.2 49.5ZM5.6 60L5.14307 60.2031L5.1452 60.2077L5.6 60ZM15.9 72.5L15.6226 72.916L15.6271 72.9189L15.9 72.5ZM46.6 72.5L46.8759 72.917L46.8803 72.9141L46.6 72.5ZM56.6 60L56.1431 59.7969L56.141 59.8017L56.6 60ZM56.6 21L56.141 21.1983L56.1431 21.2031L56.6 21ZM46.6 8.6L46.3197 9.01408L46.3241 9.01701L46.6 8.6ZM15.9 8.6L16.173 9.01895L16.1774 9.01602L15.9 8.6ZM5.6 21L5.14518 20.7922L5.14309 20.7969L5.6 21ZM18.8 40.5C18.8 37.2633 19.0973 34.3342 19.6878 31.7098L18.7122 31.4902C18.1027 34.1991 17.8 37.2033 17.8 40.5H18.8ZM19.6884 31.7072C20.2797 29.0133 21.1294 26.768 22.2274 24.9595L21.3726 24.4405C20.204 26.3654 19.3203 28.7201 18.7116 31.4928L19.6884 31.7072ZM22.2313 24.9529C23.3341 23.0716 24.6176 21.6681 26.0731 20.7188L25.5269 19.8812C23.9157 20.9319 22.5325 22.4617 21.3687 24.4471L22.2313 24.9529ZM26.0774 20.716C27.5947 19.7044 29.2648 19.2 31.1 19.2V18.2C29.0685 18.2 27.2053 18.7622 25.5227 19.884L26.0774 20.716ZM31.1 19.2C32.9351 19.2 34.568 19.7042 36.0145 20.7104L36.5855 19.8895C34.9653 18.7624 33.1316 18.2 31.1 18.2V19.2ZM36.035 20.724C37.5548 21.6739 38.8685 23.0761 39.9687 24.9529L40.8314 24.4471C39.6648 22.4572 38.2452 20.9261 36.565 19.876L36.035 20.724ZM39.9726 24.9595C41.0706 26.768 41.9203 29.0133 42.5116 31.7072L43.4884 31.4928C42.8797 28.7201 41.9961 26.3654 40.8274 24.4405L39.9726 24.9595ZM42.5122 31.7098C43.1027 34.3342 43.4 37.2633 43.4 40.5H44.4C44.4 37.2033 44.0973 34.1991 43.4878 31.4902L42.5122 31.7098ZM43.4 40.5C43.4 43.7364 43.1027 46.6999 42.5116 49.3928L43.4884 49.6072C44.0973 46.8334 44.4 43.7969 44.4 40.5H43.4ZM42.5122 49.3902C41.9211 52.0172 41.0709 54.2668 39.9687 56.1471L40.8314 56.6529C41.9958 54.6665 42.8789 52.3161 43.4878 49.6098L42.5122 49.3902ZM39.9726 56.1405C38.8721 57.9531 37.554 59.3631 36.0227 60.384L36.5774 61.216C38.246 60.1036 39.6613 58.5802 40.8274 56.6595L39.9726 56.1405ZM36.0269 60.3812C34.5794 61.3252 32.9421 61.8 31.1 61.8V62.8C33.1246 62.8 34.9539 62.2748 36.5731 61.2188L36.0269 60.3812ZM31.1 61.8C29.2579 61.8 27.5835 61.3251 26.065 60.376L25.535 61.224C27.2165 62.2749 29.0754 62.8 31.1 62.8V61.8ZM26.0855 60.3895C24.6184 59.3689 23.3306 57.9575 22.2274 56.1405L21.3726 56.6595C22.5361 58.5758 23.915 60.0977 25.5145 61.2105L26.0855 60.3895ZM22.2313 56.1471C21.1291 54.2668 20.2789 52.0172 19.6878 49.3902L18.7122 49.6098C19.3211 52.3161 20.2042 54.6665 21.3687 56.6529L22.2313 56.1471ZM19.6884 49.3928C19.0973 46.6999 18.8 43.7364 18.8 40.5H17.8C17.8 43.7969 18.1027 46.8334 18.7116 49.6072L19.6884 49.3928ZM1.5 40.5C1.5 48.1507 2.70779 54.7236 5.14309 60.2031L6.05691 59.7969C3.69221 54.4764 2.5 48.0493 2.5 40.5H1.5ZM5.1452 60.2077C7.64563 65.6817 11.1361 69.925 15.6227 72.916L16.1774 72.084C11.8639 69.2084 8.4877 65.1183 6.0548 59.7923L5.1452 60.2077ZM15.6271 72.9189C20.1157 75.8433 25.279 77.3 31.1 77.3V76.3C25.4543 76.3 20.4843 74.89 16.1729 72.0811L15.6271 72.9189ZM31.1 77.3C37.1825 77.3 42.4486 75.8458 46.8759 72.917L46.3241 72.083C42.0847 74.8875 37.0175 76.3 31.1 76.3V77.3ZM46.8803 72.9141C51.302 69.9209 54.6927 65.6746 57.059 60.1983L56.141 59.8017C53.8406 65.1254 50.5646 69.2125 46.3197 72.0859L46.8803 72.9141ZM57.0569 60.2031C59.4922 54.7236 60.7 48.1507 60.7 40.5H59.7C59.7 48.0493 58.5078 54.4764 56.1431 59.7969L57.0569 60.2031ZM60.7 40.5C60.7 32.8493 59.4922 26.2764 57.0569 20.7969L56.1431 21.2031C58.5078 26.5236 59.7 32.9507 59.7 40.5H60.7ZM57.059 20.8017C54.6924 15.3247 51.3005 11.1101 46.8759 8.18299L46.3241 9.01701C50.5661 11.8232 53.8409 15.8753 56.141 21.1983L57.059 20.8017ZM46.8803 8.18594C42.4525 5.18869 37.1848 3.69999 31.1 3.69999V4.69999C37.0152 4.69999 42.0808 6.14463 46.3197 9.01405L46.8803 8.18594ZM31.1 3.69999C25.2766 3.69999 20.1117 5.19125 15.6227 8.18397L16.1774 9.01602C20.4883 6.14207 25.4567 4.69999 31.1 4.69999V3.69999ZM15.6271 8.18107C11.1376 11.106 7.64597 15.3176 5.1452 20.7923L6.0548 21.2077C8.48737 15.8824 11.8624 11.8273 16.1729 9.01893L15.6271 8.18107ZM5.14309 20.7969C2.70779 26.2764 1.5 32.8493 1.5 40.5H2.5C2.5 32.9507 3.69221 26.5236 6.05691 21.2031L5.14309 20.7969ZM72.6109 63.1L72.2023 62.8119L71.6468 63.6H72.6109V63.1ZM136.811 63.1V63.6H137.311V63.1H136.811ZM136.811 48.7H137.311V48.2H136.811V48.7ZM122.511 48.7V48.2H122.265L122.115 48.3943L122.511 48.7ZM120.811 50.9V51.4H121.056L121.207 51.2057L120.811 50.9ZM95.0109 50.9L94.6056 50.6072L94.0328 51.4H95.0109V50.9ZM110.111 30H110.611V28.4542L109.706 29.7072L110.111 30ZM110.111 56.8L110.361 57.2327L110.611 57.0883V56.8H110.111ZM108.211 57.9L107.96 57.4673L107.711 57.6117V57.9H108.211ZM108.211 75.5H107.711V76H108.211V75.5ZM125.811 75.5V76H126.311V75.5H125.811ZM125.811 5.5H126.311V5H125.811V5.5ZM113.211 5.5V5H112.952L112.802 5.21193L113.211 5.5ZM72.6109 63.6H136.811V62.6H72.6109V63.6ZM137.311 63.1V48.7H136.311V63.1H137.311ZM136.811 48.2H122.511V49.2H136.811V48.2ZM122.115 48.3943L120.415 50.5943L121.207 51.2057L122.907 49.0057L122.115 48.3943ZM120.811 50.4H95.0109V51.4H120.811V50.4ZM95.4162 51.1928L110.516 30.2928L109.706 29.7072L94.6056 50.6072L95.4162 51.1928ZM109.611 30V56.8H110.611V30H109.611ZM109.86 56.3673L107.96 57.4673L108.461 58.3327L110.361 57.2327L109.86 56.3673ZM107.711 57.9V75.5H108.711V57.9H107.711ZM108.211 76H125.811V75H108.211V76ZM126.311 75.5V5.5H125.311V75.5H126.311ZM125.811 5H113.211V6H125.811V5ZM112.802 5.21193L72.2023 62.8119L73.0196 63.3881L113.62 5.78806L112.802 5.21193Z" fill="url(#paint0_linear_821_116)"/>
<defs>
<linearGradient id="paint0_linear_821_116" x1="70" y1="-24.5" x2="70.2432" y2="85.5666" gradientUnits="userSpaceOnUse">
<stop offset="0.229167" stop-color="#828282"/>
<stop offset="1" stop-color="#333333" stop-opacity="0"/>
</linearGradient>
</defs>
</svg>
