<svg width="140" height="81" viewBox="0 0 140 81" fill="none" xmlns="http://www.w3.org/2000/svg">
<path d="M22.2 31.6L22.6878 31.7098L22.6884 31.7072L22.2 31.6ZM24.8 24.7L25.2274 24.9595L25.2313 24.9529L24.8 24.7ZM28.8 20.3L29.0732 20.7188L29.0774 20.716L28.8 20.3ZM39.3 20.3L39.0145 20.7104L39.0246 20.7175L39.035 20.724L39.3 20.3ZM43.4 24.7L42.9686 24.9529L42.9726 24.9595L43.4 24.7ZM46 31.6L45.5116 31.7072L45.5122 31.7098L46 31.6ZM46 49.5L46.4878 49.6098L46.4884 49.6072L46 49.5ZM43.4 56.4L43.8274 56.6595L43.8314 56.6529L43.4 56.4ZM39.3 60.8L39.5731 61.2188L39.5774 61.216L39.3 60.8ZM28.8 60.8L28.5145 61.2105L28.5246 61.2175L28.535 61.224L28.8 60.8ZM24.8 56.4L24.3686 56.6529L24.3726 56.6595L24.8 56.4ZM22.2 49.5L21.7116 49.6072L21.7122 49.6098L22.2 49.5ZM8.6 60L8.14307 60.2031L8.1452 60.2077L8.6 60ZM18.9 72.5L18.6226 72.916L18.6271 72.9189L18.9 72.5ZM49.6 72.5L49.8759 72.917L49.8803 72.9141L49.6 72.5ZM59.6 60L59.1431 59.7969L59.141 59.8017L59.6 60ZM59.6 21L59.141 21.1983L59.1431 21.2031L59.6 21ZM49.6 8.6L49.3197 9.01408L49.3241 9.01701L49.6 8.6ZM18.9 8.6L19.173 9.01895L19.1774 9.01602L18.9 8.6ZM8.6 21L8.14518 20.7922L8.14309 20.7969L8.6 21ZM21.8 40.5C21.8 37.2633 22.0973 34.3342 22.6878 31.7098L21.7122 31.4902C21.1027 34.1991 20.8 37.2033 20.8 40.5H21.8ZM22.6884 31.7072C23.2797 29.0133 24.1294 26.768 25.2274 24.9595L24.3726 24.4405C23.204 26.3654 22.3203 28.7201 21.7116 31.4928L22.6884 31.7072ZM25.2313 24.9529C26.3341 23.0716 27.6176 21.6681 29.0731 20.7188L28.5269 19.8812C26.9157 20.9319 25.5325 22.4617 24.3687 24.4471L25.2313 24.9529ZM29.0774 20.716C30.5947 19.7044 32.2648 19.2 34.1 19.2V18.2C32.0685 18.2 30.2053 18.7622 28.5227 19.884L29.0774 20.716ZM34.1 19.2C35.9351 19.2 37.568 19.7042 39.0145 20.7104L39.5855 19.8895C37.9653 18.7624 36.1316 18.2 34.1 18.2V19.2ZM39.035 20.724C40.5548 21.6739 41.8685 23.0761 42.9687 24.9529L43.8314 24.4471C42.6648 22.4572 41.2452 20.9261 39.565 19.876L39.035 20.724ZM42.9726 24.9595C44.0706 26.768 44.9203 29.0133 45.5116 31.7072L46.4884 31.4928C45.8797 28.7201 44.9961 26.3654 43.8274 24.4405L42.9726 24.9595ZM45.5122 31.7098C46.1027 34.3342 46.4 37.2633 46.4 40.5H47.4C47.4 37.2033 47.0973 34.1991 46.4878 31.4902L45.5122 31.7098ZM46.4 40.5C46.4 43.7364 46.1027 46.6999 45.5116 49.3928L46.4884 49.6072C47.0973 46.8334 47.4 43.7969 47.4 40.5H46.4ZM45.5122 49.3902C44.9211 52.0172 44.0709 54.2668 42.9687 56.1471L43.8314 56.6529C44.9958 54.6665 45.8789 52.3161 46.4878 49.6098L45.5122 49.3902ZM42.9726 56.1405C41.8721 57.9531 40.554 59.3631 39.0227 60.384L39.5774 61.216C41.246 60.1036 42.6613 58.5802 43.8274 56.6595L42.9726 56.1405ZM39.0269 60.3812C37.5794 61.3252 35.9421 61.8 34.1 61.8V62.8C36.1246 62.8 37.9539 62.2748 39.5731 61.2188L39.0269 60.3812ZM34.1 61.8C32.2579 61.8 30.5835 61.3251 29.065 60.376L28.535 61.224C30.2165 62.2749 32.0754 62.8 34.1 62.8V61.8ZM29.0855 60.3895C27.6184 59.3689 26.3306 57.9575 25.2274 56.1405L24.3726 56.6595C25.5361 58.5758 26.915 60.0977 28.5145 61.2105L29.0855 60.3895ZM25.2313 56.1471C24.1291 54.2668 23.2789 52.0172 22.6878 49.3902L21.7122 49.6098C22.3211 52.3161 23.2042 54.6665 24.3687 56.6529L25.2313 56.1471ZM22.6884 49.3928C22.0973 46.6999 21.8 43.7364 21.8 40.5H20.8C20.8 43.7969 21.1027 46.8334 21.7116 49.6072L22.6884 49.3928ZM4.5 40.5C4.5 48.1507 5.70779 54.7236 8.14309 60.2031L9.05691 59.7969C6.69221 54.4764 5.5 48.0493 5.5 40.5H4.5ZM8.1452 60.2077C10.6456 65.6817 14.1361 69.925 18.6227 72.916L19.1774 72.084C14.8639 69.2084 11.4877 65.1183 9.0548 59.7923L8.1452 60.2077ZM18.6271 72.9189C23.1157 75.8433 28.279 77.3 34.1 77.3V76.3C28.4543 76.3 23.4843 74.89 19.1729 72.0811L18.6271 72.9189ZM34.1 77.3C40.1825 77.3 45.4486 75.8458 49.8759 72.917L49.3241 72.083C45.0847 74.8875 40.0175 76.3 34.1 76.3V77.3ZM49.8803 72.9141C54.302 69.9209 57.6927 65.6746 60.059 60.1983L59.141 59.8017C56.8406 65.1254 53.5646 69.2125 49.3197 72.0859L49.8803 72.9141ZM60.0569 60.2031C62.4922 54.7236 63.7 48.1507 63.7 40.5H62.7C62.7 48.0493 61.5078 54.4764 59.1431 59.7969L60.0569 60.2031ZM63.7 40.5C63.7 32.8493 62.4922 26.2764 60.0569 20.7969L59.1431 21.2031C61.5078 26.5236 62.7 32.9507 62.7 40.5H63.7ZM60.059 20.8017C57.6924 15.3247 54.3005 11.1101 49.8759 8.18299L49.3241 9.01701C53.5661 11.8232 56.8409 15.8753 59.141 21.1983L60.059 20.8017ZM49.8803 8.18594C45.4525 5.18869 40.1848 3.69999 34.1 3.69999V4.69999C40.0152 4.69999 45.0808 6.14463 49.3197 9.01405L49.8803 8.18594ZM34.1 3.69999C28.2766 3.69999 23.1117 5.19125 18.6227 8.18397L19.1774 9.01602C23.4883 6.14207 28.4567 4.69999 34.1 4.69999V3.69999ZM18.6271 8.18107C14.1376 11.106 10.646 15.3176 8.1452 20.7923L9.0548 21.2077C11.4874 15.8824 14.8624 11.8273 19.1729 9.01893L18.6271 8.18107ZM8.14309 20.7969C5.70779 26.2764 4.5 32.8493 4.5 40.5H5.5C5.5 32.9507 6.69221 26.5236 9.05691 21.2031L8.14309 20.7969ZM131.711 40.7L132.142 40.4465L132.142 40.4465L131.711 40.7ZM123.811 32.9L123.566 33.3358L123.57 33.3379L123.811 32.9ZM107.011 30.8L107.093 31.2934L107.106 31.2909L107.011 30.8ZM101.211 32.6L100.735 32.4476L100.387 33.5337L101.421 33.0535L101.211 32.6ZM105.211 20.1V19.6H104.846L104.735 19.9476L105.211 20.1ZM133.211 20.1V20.6H133.711V20.1H133.211ZM133.211 5.5H133.711V5H133.211V5.5ZM92.8109 5.5V5H92.4177L92.325 5.38213L92.8109 5.5ZM83.0109 45.9L82.525 45.7821L82.2711 46.8289L83.2345 46.3472L83.0109 45.9ZM90.0109 43.2L90.1389 43.6834L90.1483 43.6808L90.0109 43.2ZM96.7109 41.9L96.7576 42.398L96.7711 42.3964L96.7109 41.9ZM109.211 42.5L109.053 42.9744L109.057 42.9759L109.211 42.5ZM114.211 45.7L113.833 46.0268L113.84 46.036L113.849 46.0448L114.211 45.7ZM110.011 60.3L109.839 59.8306L109.839 59.8306L110.011 60.3ZM97.1109 60.5L96.9574 60.9759L96.9645 60.9781L96.9715 60.9802L97.1109 60.5ZM90.9109 57.9L90.6644 58.335L90.6729 58.3398L90.6816 58.3443L90.9109 57.9ZM85.0109 53.8L85.3297 53.4148L84.8348 53.0052L84.5593 53.5855L85.0109 53.8ZM78.4109 67.7L77.9593 67.4855L77.7848 67.8529L78.109 68.0985L78.4109 67.7ZM85.7109 72.3L85.4785 72.7428L85.4873 72.7472L85.7109 72.3ZM94.9109 75.5L95.0322 75.0148L95.0234 75.0128L94.9109 75.5ZM116.511 75.5L116.639 75.9833L116.646 75.9815L116.511 75.5ZM125.611 71.2L125.327 70.7885L125.322 70.7918L125.611 71.2ZM132.211 63.8L131.774 63.5571L131.77 63.5647L132.211 63.8ZM135.211 53.1C135.211 48.1649 134.197 43.9394 132.142 40.4465L131.28 40.9535C133.225 44.2606 134.211 48.3018 134.211 53.1H135.211ZM132.142 40.4465C130.099 36.9737 127.402 34.3079 124.052 32.4621L123.57 33.3379C126.753 35.0921 129.323 37.6263 131.28 40.9535L132.142 40.4465ZM124.056 32.4642C120.78 30.6214 117.229 29.7 113.411 29.7V30.7C117.06 30.7 120.442 31.5786 123.566 33.3358L124.056 32.4642ZM113.411 29.7C111.18 29.7 109.015 29.9028 106.916 30.3091L107.106 31.2909C109.14 30.8972 111.241 30.7 113.411 30.7V29.7ZM106.929 30.3068C104.884 30.6476 102.907 31.2612 101 32.1465L101.421 33.0535C103.248 32.2055 105.138 31.619 107.093 31.2932L106.929 30.3068ZM101.687 32.7524L105.687 20.2524L104.735 19.9476L100.735 32.4476L101.687 32.7524ZM105.211 20.6H133.211V19.6H105.211V20.6ZM133.711 20.1V5.5H132.711V20.1H133.711ZM133.211 5H92.8109V6H133.211V5ZM92.325 5.38213L82.525 45.7821L83.4968 46.0179L93.2968 5.61786L92.325 5.38213ZM83.2345 46.3472C85.6083 45.1604 87.9096 44.2735 90.1389 43.6834L89.883 42.7166C87.579 43.3265 85.2136 44.2396 82.7873 45.4528L83.2345 46.3472ZM90.1483 43.6808C92.4558 43.0215 94.6587 42.5946 96.7576 42.3978L96.6643 41.4022C94.4965 41.6054 92.2327 42.0452 89.8736 42.7192L90.1483 43.6808ZM96.7711 42.3964C98.9555 42.1316 100.935 42 102.711 42V41C100.887 41 98.8664 41.1351 96.6508 41.4036L96.7711 42.3964ZM102.711 42C104.996 42 107.109 42.3264 109.053 42.9743L109.369 42.0257C107.313 41.3403 105.092 41 102.711 41V42ZM109.057 42.9759C111.048 43.6179 112.633 44.6376 113.833 46.0268L114.589 45.3732C113.256 43.8291 111.508 42.7155 109.364 42.0241L109.057 42.9759ZM113.849 46.0448C115.076 47.3333 115.711 49.0669 115.711 51.3H116.711C116.711 48.8664 116.013 46.8667 114.573 45.3552L113.849 46.0448ZM115.711 51.3C115.711 53.4165 115.199 55.179 114.2 56.6145L115.021 57.1855C116.156 55.5543 116.711 53.5835 116.711 51.3H115.711ZM114.2 56.6145C113.2 58.052 111.756 59.1274 109.839 59.8306L110.183 60.7694C112.265 60.0059 113.888 58.8147 115.021 57.1855L114.2 56.6145ZM109.839 59.8306C107.909 60.538 105.538 60.9 102.711 60.9V61.9C105.617 61.9 108.113 61.5286 110.183 60.7694L109.839 59.8306ZM102.711 60.9C101.103 60.9 99.2841 60.6103 97.2503 60.0198L96.9715 60.9802C99.0711 61.5897 100.986 61.9 102.711 61.9V60.9ZM97.2644 60.0241C95.2256 59.3665 93.1843 58.5107 91.1403 57.4557L90.6816 58.3443C92.7709 59.4227 94.8629 60.3002 96.9574 60.9759L97.2644 60.0241ZM91.1574 57.465C89.1852 56.3474 87.2425 54.9978 85.3297 53.4148L84.6922 54.1852C86.646 55.8022 88.6367 57.186 90.6644 58.335L91.1574 57.465ZM84.5593 53.5855L77.9593 67.4855L78.8626 67.9145L85.4626 54.0145L84.5593 53.5855ZM78.109 68.0985C80.3328 69.7832 82.7897 71.3311 85.4785 72.7427L85.9434 71.8573C83.2989 70.4689 80.8891 68.9501 78.7129 67.3015L78.109 68.0985ZM85.4873 72.7472C88.1954 74.1012 91.3005 75.18 94.7985 75.9872L95.0234 75.0128C91.588 74.22 88.5598 73.1654 85.9345 71.8528L85.4873 72.7472ZM94.7897 75.9851C98.3028 76.8633 102.211 77.3 106.511 77.3V76.3C102.278 76.3 98.4524 75.87 95.0322 75.0149L94.7897 75.9851ZM106.511 77.3C109.954 77.3 113.33 76.8611 116.639 75.9833L116.383 75.0167C113.158 75.8722 109.868 76.3 106.511 76.3V77.3ZM116.646 75.9815C120.032 75.0332 123.118 73.5757 125.9 71.6082L125.322 70.7918C122.637 72.691 119.656 74.1001 116.376 75.0185L116.646 75.9815ZM125.895 71.6114C128.761 69.6328 131.015 67.1058 132.652 64.0353L131.77 63.5647C130.207 66.4942 128.061 68.9005 125.327 70.7886L125.895 71.6114ZM132.648 64.0428C134.364 60.9548 135.211 57.301 135.211 53.1H134.211C134.211 57.1657 133.392 60.6452 131.774 63.5572L132.648 64.0428Z" fill="url(#paint0_linear_821_118)"/>
<defs>
<linearGradient id="paint0_linear_821_118" x1="70" y1="-24.5" x2="70.2538" y2="85.5665" gradientUnits="userSpaceOnUse">
<stop offset="0.229167" stop-color="#828282"/>
<stop offset="1" stop-color="#333333" stop-opacity="0"/>
</linearGradient>
</defs>
</svg>
