<svg width="140" height="81" viewBox="0 0 140 81" fill="none" xmlns="http://www.w3.org/2000/svg">
<path d="M20.7 31.6L21.1878 31.7098L21.1884 31.7072L20.7 31.6ZM23.3 24.7L23.7274 24.9595L23.7313 24.9529L23.3 24.7ZM27.3 20.3L27.5732 20.7188L27.5774 20.716L27.3 20.3ZM37.8 20.3L37.5145 20.7104L37.5246 20.7175L37.535 20.724L37.8 20.3ZM41.9 24.7L41.4686 24.9529L41.4726 24.9595L41.9 24.7ZM44.5 31.6L44.0116 31.7072L44.0122 31.7098L44.5 31.6ZM44.5 49.5L44.9878 49.6098L44.9884 49.6072L44.5 49.5ZM41.9 56.4L42.3274 56.6595L42.3314 56.6529L41.9 56.4ZM37.8 60.8L38.0731 61.2188L38.0774 61.216L37.8 60.8ZM27.3 60.8L27.0145 61.2105L27.0246 61.2175L27.035 61.224L27.3 60.8ZM23.3 56.4L22.8686 56.6529L22.8726 56.6595L23.3 56.4ZM20.7 49.5L20.2116 49.6072L20.2122 49.6098L20.7 49.5ZM7.1 60L6.64307 60.2031L6.6452 60.2077L7.1 60ZM17.4 72.5L17.1226 72.916L17.1271 72.9189L17.4 72.5ZM48.1 72.5L48.3759 72.917L48.3803 72.9141L48.1 72.5ZM58.1 60L57.6431 59.7969L57.641 59.8017L58.1 60ZM58.1 21L57.641 21.1983L57.6431 21.2031L58.1 21ZM48.1 8.6L47.8197 9.01408L47.8241 9.01701L48.1 8.6ZM17.4 8.6L17.673 9.01895L17.6774 9.01602L17.4 8.6ZM7.1 21L6.64518 20.7922L6.64309 20.7969L7.1 21ZM20.3 40.5C20.3 37.2633 20.5973 34.3342 21.1878 31.7098L20.2122 31.4902C19.6027 34.1991 19.3 37.2033 19.3 40.5H20.3ZM21.1884 31.7072C21.7797 29.0133 22.6294 26.768 23.7274 24.9595L22.8726 24.4405C21.704 26.3654 20.8203 28.7201 20.2116 31.4928L21.1884 31.7072ZM23.7313 24.9529C24.8341 23.0716 26.1176 21.6681 27.5731 20.7188L27.0269 19.8812C25.4157 20.9319 24.0325 22.4617 22.8687 24.4471L23.7313 24.9529ZM27.5774 20.716C29.0947 19.7044 30.7648 19.2 32.6 19.2V18.2C30.5685 18.2 28.7053 18.7622 27.0227 19.884L27.5774 20.716ZM32.6 19.2C34.4351 19.2 36.068 19.7042 37.5145 20.7104L38.0855 19.8895C36.4653 18.7624 34.6316 18.2 32.6 18.2V19.2ZM37.535 20.724C39.0548 21.6739 40.3685 23.0761 41.4687 24.9529L42.3314 24.4471C41.1648 22.4572 39.7452 20.9261 38.065 19.876L37.535 20.724ZM41.4726 24.9595C42.5706 26.768 43.4203 29.0133 44.0116 31.7072L44.9884 31.4928C44.3797 28.7201 43.4961 26.3654 42.3274 24.4405L41.4726 24.9595ZM44.0122 31.7098C44.6027 34.3342 44.9 37.2633 44.9 40.5H45.9C45.9 37.2033 45.5973 34.1991 44.9878 31.4902L44.0122 31.7098ZM44.9 40.5C44.9 43.7364 44.6027 46.6999 44.0116 49.3928L44.9884 49.6072C45.5973 46.8334 45.9 43.7969 45.9 40.5H44.9ZM44.0122 49.3902C43.4211 52.0172 42.5709 54.2668 41.4687 56.1471L42.3314 56.6529C43.4958 54.6665 44.3789 52.3161 44.9878 49.6098L44.0122 49.3902ZM41.4726 56.1405C40.3721 57.9531 39.054 59.3631 37.5227 60.384L38.0774 61.216C39.746 60.1036 41.1613 58.5802 42.3274 56.6595L41.4726 56.1405ZM37.5269 60.3812C36.0794 61.3252 34.4421 61.8 32.6 61.8V62.8C34.6246 62.8 36.4539 62.2748 38.0731 61.2188L37.5269 60.3812ZM32.6 61.8C30.7579 61.8 29.0835 61.3251 27.565 60.376L27.035 61.224C28.7165 62.2749 30.5754 62.8 32.6 62.8V61.8ZM27.5855 60.3895C26.1184 59.3689 24.8306 57.9575 23.7274 56.1405L22.8726 56.6595C24.0361 58.5758 25.415 60.0977 27.0145 61.2105L27.5855 60.3895ZM23.7313 56.1471C22.6291 54.2668 21.7789 52.0172 21.1878 49.3902L20.2122 49.6098C20.8211 52.3161 21.7042 54.6665 22.8687 56.6529L23.7313 56.1471ZM21.1884 49.3928C20.5973 46.6999 20.3 43.7364 20.3 40.5H19.3C19.3 43.7969 19.6027 46.8334 20.2116 49.6072L21.1884 49.3928ZM3 40.5C3 48.1507 4.20779 54.7236 6.64309 60.2031L7.55691 59.7969C5.19221 54.4764 4 48.0493 4 40.5H3ZM6.6452 60.2077C9.14563 65.6817 12.6361 69.925 17.1227 72.916L17.6774 72.084C13.3639 69.2084 9.9877 65.1183 7.5548 59.7923L6.6452 60.2077ZM17.1271 72.9189C21.6157 75.8433 26.779 77.3 32.6 77.3V76.3C26.9543 76.3 21.9843 74.89 17.6729 72.0811L17.1271 72.9189ZM32.6 77.3C38.6825 77.3 43.9486 75.8458 48.3759 72.917L47.8241 72.083C43.5847 74.8875 38.5175 76.3 32.6 76.3V77.3ZM48.3803 72.9141C52.802 69.9209 56.1927 65.6746 58.559 60.1983L57.641 59.8017C55.3406 65.1254 52.0646 69.2125 47.8197 72.0859L48.3803 72.9141ZM58.5569 60.2031C60.9922 54.7236 62.2 48.1507 62.2 40.5H61.2C61.2 48.0493 60.0078 54.4764 57.6431 59.7969L58.5569 60.2031ZM62.2 40.5C62.2 32.8493 60.9922 26.2764 58.5569 20.7969L57.6431 21.2031C60.0078 26.5236 61.2 32.9507 61.2 40.5H62.2ZM58.559 20.8017C56.1924 15.3247 52.8005 11.1101 48.3759 8.18299L47.8241 9.01701C52.0661 11.8232 55.3409 15.8753 57.641 21.1983L58.559 20.8017ZM48.3803 8.18594C43.9525 5.18869 38.6848 3.69999 32.6 3.69999V4.69999C38.5152 4.69999 43.5808 6.14463 47.8197 9.01405L48.3803 8.18594ZM32.6 3.69999C26.7766 3.69999 21.6117 5.19125 17.1227 8.18397L17.6774 9.01602C21.9883 6.14207 26.9567 4.69999 32.6 4.69999V3.69999ZM17.1271 8.18107C12.6376 11.106 9.14597 15.3176 6.6452 20.7923L7.5548 21.2077C9.98737 15.8824 13.3624 11.8273 17.6729 9.01893L17.1271 8.18107ZM6.64309 20.7969C4.20779 26.2764 3 32.8493 3 40.5H4C4 32.9507 5.19221 26.5236 7.55691 21.2031L6.64309 20.7969ZM95.9109 44.7L95.4806 44.445L95.4739 44.4572L95.9109 44.7ZM100.111 40.5L99.8681 40.0629L99.8611 40.0669L100.111 40.5ZM112.111 40.5L111.861 40.9331L111.868 40.9371L112.111 40.5ZM116.311 44.7L115.874 44.9429L115.881 44.9549L116.311 44.7ZM116.311 57.2L115.881 56.9451L115.878 56.9501L116.311 57.2ZM112.111 61.3L112.348 61.7403L112.354 61.7371L112.111 61.3ZM100.111 61.3L99.8611 61.7331L99.8708 61.7387L99.8808 61.7439L100.111 61.3ZM95.9109 57.2L95.4739 57.4428L95.4793 57.4526L95.4851 57.462L95.9109 57.2ZM106.011 5.8V5.3H105.768L105.618 5.49102L106.011 5.8ZM85.8109 31.5L86.1996 31.8146L86.204 31.809L85.8109 31.5ZM80.0109 40.5L79.5637 40.2764L79.56 40.2839L80.0109 40.5ZM81.5109 65.4L81.0905 65.6708L81.096 65.679L81.5109 65.4ZM91.8109 74.2L91.5987 74.6528L91.6072 74.6566L91.8109 74.2ZM120.411 74.2L120.617 74.6554L120.62 74.654L120.411 74.2ZM130.711 65.4L130.294 65.1243L130.293 65.126L130.711 65.4ZM132.711 41.4L132.251 41.597L132.255 41.6061L132.711 41.4ZM127.711 34.3L127.363 34.6593L127.369 34.665L127.375 34.6705L127.711 34.3ZM120.711 29.8L120.517 30.2608L120.524 30.2639L120.531 30.2667L120.711 29.8ZM106.611 29L106.464 28.5221L106.459 28.5238L106.611 29ZM101.311 32.6L100.957 32.2464L101.508 33.0596L101.311 32.6ZM104.811 31.1L105.008 31.5596L105.11 31.5159L105.184 31.4331L104.811 31.1ZM127.411 5.8L127.784 6.13309L128.528 5.3H127.411V5.8ZM94.9109 50.9C94.9109 48.6402 95.3945 46.6591 96.348 44.9428L95.4739 44.4572C94.4274 46.3409 93.9109 48.4932 93.9109 50.9H94.9109ZM96.3411 44.9549C97.366 43.2253 98.7053 41.8882 100.361 40.9331L99.8611 40.0669C98.0499 41.1118 96.5892 42.5747 95.4808 44.4451L96.3411 44.9549ZM100.354 40.9371C102.072 39.9824 104.02 39.5 106.211 39.5V38.5C103.868 38.5 101.75 39.0176 99.8681 40.0629L100.354 40.9371ZM106.211 39.5C108.332 39.5 110.211 39.9812 111.861 40.9331L112.361 40.0669C110.544 39.0188 108.49 38.5 106.211 38.5V39.5ZM111.868 40.9371C113.586 41.8917 114.919 43.2244 115.874 44.9428L116.748 44.4572C115.703 42.5756 114.235 41.1083 112.354 40.0629L111.868 40.9371ZM115.881 44.9549C116.897 46.6691 117.411 48.6458 117.411 50.9H118.411C118.411 48.4876 117.859 46.3309 116.741 44.4451L115.881 44.9549ZM117.411 50.9C117.411 53.2237 116.895 55.233 115.881 56.9451L116.741 57.4549C117.86 55.567 118.411 53.3763 118.411 50.9H117.411ZM115.878 56.9501C114.924 58.6026 113.591 59.9056 111.868 60.8629L112.354 61.7371C114.231 60.6944 115.697 59.264 116.744 57.4499L115.878 56.9501ZM111.874 60.8598C110.222 61.7494 108.338 62.2 106.211 62.2V63.2C108.484 63.2 110.534 62.7172 112.348 61.7402L111.874 60.8598ZM106.211 62.2C104.015 62.2 102.062 61.7484 100.341 60.8561L99.8808 61.7439C101.76 62.7183 103.874 63.2 106.211 63.2V62.2ZM100.361 60.8669C98.7007 59.9092 97.3607 58.6018 96.3368 56.9379L95.4851 57.462C96.5945 59.2649 98.0545 60.6908 99.8611 61.7331L100.361 60.8669ZM96.348 56.9572C95.3957 55.2429 94.9109 53.2292 94.9109 50.9H93.9109C93.9109 53.3708 94.4262 55.5571 95.4739 57.4428L96.348 56.9572ZM105.618 5.49102L85.4178 31.191L86.204 31.809L106.404 6.10898L105.618 5.49102ZM85.4223 31.1854C83.133 34.0133 81.18 37.0438 79.5637 40.2764L80.4582 40.7236C82.0419 37.5562 83.9555 34.5867 86.1996 31.8146L85.4223 31.1854ZM79.56 40.2839C77.9927 43.5549 77.2109 47.0959 77.2109 50.9H78.2109C78.2109 47.2375 78.9625 43.8451 80.4618 40.7161L79.56 40.2839ZM77.2109 50.9C77.2109 56.7076 78.4946 61.6402 81.0906 65.6707L81.9313 65.1293C79.4606 61.2932 78.2109 56.5591 78.2109 50.9H77.2109ZM81.096 65.679C83.7472 69.6218 87.251 72.6147 91.5987 74.6527L92.0232 73.7473C87.8376 71.7853 84.4747 68.9116 81.9259 65.121L81.096 65.679ZM91.6072 74.6566C96.0114 76.6216 100.882 77.6 106.211 77.6V76.6C101.007 76.6 96.2772 75.6451 92.0147 73.7434L91.6072 74.6566ZM106.211 77.6C111.474 77.6 116.279 76.6212 120.617 74.6554L120.205 73.7446C116.01 75.6454 111.348 76.6 106.211 76.6V77.6ZM120.62 74.654C125.036 72.6161 128.543 69.6217 131.129 65.674L130.293 65.126C127.812 68.9117 124.453 71.7839 120.201 73.746L120.62 74.654ZM131.128 65.6757C133.793 61.6444 135.111 56.71 135.111 50.9H134.111C134.111 56.5567 132.829 61.2889 130.294 65.1243L131.128 65.6757ZM135.111 50.9C135.111 47.3062 134.467 44.0677 133.166 41.1939L132.255 41.6061C133.489 44.3323 134.111 47.4271 134.111 50.9H135.111ZM133.171 41.203C131.944 38.3409 130.236 35.9139 128.047 33.9295L127.375 34.6705C129.452 36.5528 131.078 38.8591 132.251 41.597L133.171 41.203ZM128.059 33.9407C125.945 31.8955 123.555 30.3582 120.89 29.3333L120.531 30.2667C123.067 31.2418 125.343 32.7045 127.363 34.6593L128.059 33.9407ZM120.905 29.3392C118.314 28.2482 115.681 27.7 113.011 27.7V28.7C115.541 28.7 118.041 29.2185 120.517 30.2608L120.905 29.3392ZM113.011 27.7C110.446 27.7 108.26 27.9696 106.464 28.5221L106.758 29.4779C108.429 28.9637 110.509 28.7 113.011 28.7V27.7ZM106.459 28.5238C104.687 29.0906 102.854 30.3497 100.957 32.2464L101.664 32.9536C103.501 31.117 105.201 29.976 106.763 29.4762L106.459 28.5238ZM101.508 33.0596L105.008 31.5596L104.614 30.6404L101.114 32.1404L101.508 33.0596ZM105.184 31.4331L127.784 6.13309L127.038 5.4669L104.438 30.7669L105.184 31.4331ZM127.411 5.3H106.011V6.3H127.411V5.3Z" fill="url(#paint0_linear_821_120)"/>
<defs>
<linearGradient id="paint0_linear_821_120" x1="70" y1="-24.5" x2="70.2484" y2="85.5665" gradientUnits="userSpaceOnUse">
<stop offset="0.229167" stop-color="#828282"/>
<stop offset="1" stop-color="#333333" stop-opacity="0"/>
</linearGradient>
</defs>
</svg>
