<svg width="140" height="81" viewBox="0 0 140 81" fill="none" xmlns="http://www.w3.org/2000/svg">
<path d="M24.2 31.6L24.6878 31.7098L24.6884 31.7072L24.2 31.6ZM26.8 24.7L27.2274 24.9595L27.2313 24.9529L26.8 24.7ZM30.8 20.3L31.0732 20.7188L31.0774 20.716L30.8 20.3ZM41.3 20.3L41.0145 20.7104L41.0246 20.7175L41.035 20.724L41.3 20.3ZM45.4 24.7L44.9686 24.9529L44.9726 24.9595L45.4 24.7ZM48 31.6L47.5116 31.7072L47.5122 31.7098L48 31.6ZM48 49.5L48.4878 49.6098L48.4884 49.6072L48 49.5ZM45.4 56.4L45.8274 56.6595L45.8314 56.6529L45.4 56.4ZM41.3 60.8L41.5731 61.2188L41.5774 61.216L41.3 60.8ZM30.8 60.8L30.5145 61.2105L30.5246 61.2175L30.535 61.224L30.8 60.8ZM26.8 56.4L26.3686 56.6529L26.3726 56.6595L26.8 56.4ZM24.2 49.5L23.7116 49.6072L23.7122 49.6098L24.2 49.5ZM10.6 60L10.1431 60.2031L10.1452 60.2077L10.6 60ZM20.9 72.5L20.6226 72.916L20.6271 72.9189L20.9 72.5ZM51.6 72.5L51.8759 72.917L51.8803 72.9141L51.6 72.5ZM61.6 60L61.1431 59.7969L61.141 59.8017L61.6 60ZM61.6 21L61.141 21.1983L61.1431 21.2031L61.6 21ZM51.6 8.6L51.3197 9.01408L51.3241 9.01701L51.6 8.6ZM20.9 8.6L21.173 9.01895L21.1774 9.01602L20.9 8.6ZM10.6 21L10.1452 20.7922L10.1431 20.7969L10.6 21ZM23.8 40.5C23.8 37.2633 24.0973 34.3342 24.6878 31.7098L23.7122 31.4902C23.1027 34.1991 22.8 37.2033 22.8 40.5H23.8ZM24.6884 31.7072C25.2797 29.0133 26.1294 26.768 27.2274 24.9595L26.3726 24.4405C25.204 26.3654 24.3203 28.7201 23.7116 31.4928L24.6884 31.7072ZM27.2313 24.9529C28.3341 23.0716 29.6176 21.6681 31.0731 20.7188L30.5269 19.8812C28.9157 20.9319 27.5325 22.4617 26.3687 24.4471L27.2313 24.9529ZM31.0774 20.716C32.5947 19.7044 34.2648 19.2 36.1 19.2V18.2C34.0685 18.2 32.2053 18.7622 30.5227 19.884L31.0774 20.716ZM36.1 19.2C37.9351 19.2 39.568 19.7042 41.0145 20.7104L41.5855 19.8895C39.9653 18.7624 38.1316 18.2 36.1 18.2V19.2ZM41.035 20.724C42.5548 21.6739 43.8685 23.0761 44.9687 24.9529L45.8314 24.4471C44.6648 22.4572 43.2452 20.9261 41.565 19.876L41.035 20.724ZM44.9726 24.9595C46.0706 26.768 46.9203 29.0133 47.5116 31.7072L48.4884 31.4928C47.8797 28.7201 46.9961 26.3654 45.8274 24.4405L44.9726 24.9595ZM47.5122 31.7098C48.1027 34.3342 48.4 37.2633 48.4 40.5H49.4C49.4 37.2033 49.0973 34.1991 48.4878 31.4902L47.5122 31.7098ZM48.4 40.5C48.4 43.7364 48.1027 46.6999 47.5116 49.3928L48.4884 49.6072C49.0973 46.8334 49.4 43.7969 49.4 40.5H48.4ZM47.5122 49.3902C46.9211 52.0172 46.0709 54.2668 44.9687 56.1471L45.8314 56.6529C46.9958 54.6665 47.8789 52.3161 48.4878 49.6098L47.5122 49.3902ZM44.9726 56.1405C43.8721 57.9531 42.554 59.3631 41.0227 60.384L41.5774 61.216C43.246 60.1036 44.6613 58.5802 45.8274 56.6595L44.9726 56.1405ZM41.0269 60.3812C39.5794 61.3252 37.9421 61.8 36.1 61.8V62.8C38.1246 62.8 39.9539 62.2748 41.5731 61.2188L41.0269 60.3812ZM36.1 61.8C34.2579 61.8 32.5835 61.3251 31.065 60.376L30.535 61.224C32.2165 62.2749 34.0754 62.8 36.1 62.8V61.8ZM31.0855 60.3895C29.6184 59.3689 28.3306 57.9575 27.2274 56.1405L26.3726 56.6595C27.5361 58.5758 28.915 60.0977 30.5145 61.2105L31.0855 60.3895ZM27.2313 56.1471C26.1291 54.2668 25.2789 52.0172 24.6878 49.3902L23.7122 49.6098C24.3211 52.3161 25.2042 54.6665 26.3687 56.6529L27.2313 56.1471ZM24.6884 49.3928C24.0973 46.6999 23.8 43.7364 23.8 40.5H22.8C22.8 43.7969 23.1027 46.8334 23.7116 49.6072L24.6884 49.3928ZM6.5 40.5C6.5 48.1507 7.70779 54.7236 10.1431 60.2031L11.0569 59.7969C8.69221 54.4764 7.5 48.0493 7.5 40.5H6.5ZM10.1452 60.2077C12.6456 65.6817 16.1361 69.925 20.6227 72.916L21.1774 72.084C16.8639 69.2084 13.4877 65.1183 11.0548 59.7923L10.1452 60.2077ZM20.6271 72.9189C25.1157 75.8433 30.279 77.3 36.1 77.3V76.3C30.4543 76.3 25.4843 74.89 21.1729 72.0811L20.6271 72.9189ZM36.1 77.3C42.1825 77.3 47.4486 75.8458 51.8759 72.917L51.3241 72.083C47.0847 74.8875 42.0175 76.3 36.1 76.3V77.3ZM51.8803 72.9141C56.302 69.9209 59.6927 65.6746 62.059 60.1983L61.141 59.8017C58.8406 65.1254 55.5646 69.2125 51.3197 72.0859L51.8803 72.9141ZM62.0569 60.2031C64.4922 54.7236 65.7 48.1507 65.7 40.5H64.7C64.7 48.0493 63.5078 54.4764 61.1431 59.7969L62.0569 60.2031ZM65.7 40.5C65.7 32.8493 64.4922 26.2764 62.0569 20.7969L61.1431 21.2031C63.5078 26.5236 64.7 32.9507 64.7 40.5H65.7ZM62.059 20.8017C59.6924 15.3247 56.3005 11.1101 51.8759 8.18299L51.3241 9.01701C55.5661 11.8232 58.8409 15.8753 61.141 21.1983L62.059 20.8017ZM51.8803 8.18594C47.4525 5.18869 42.1848 3.69999 36.1 3.69999V4.69999C42.0152 4.69999 47.0808 6.14463 51.3197 9.01405L51.8803 8.18594ZM36.1 3.69999C30.2766 3.69999 25.1117 5.19125 20.6227 8.18397L21.1774 9.01602C25.4883 6.14207 30.4567 4.69999 36.1 4.69999V3.69999ZM20.6271 8.18107C16.1376 11.106 12.646 15.3176 10.1452 20.7923L11.0548 21.2077C13.4874 15.8824 16.8624 11.8273 21.1729 9.01893L20.6271 8.18107ZM10.1431 20.7969C7.70779 26.2764 6.5 32.8493 6.5 40.5H7.5C7.5 32.9507 8.69221 26.5236 11.0569 21.2031L10.1431 20.7969ZM79.2109 21.3H78.7109V21.8H79.2109V21.3ZM111.511 21.3L111.957 21.5249L112.323 20.8H111.511V21.3ZM84.2109 75.5L83.7644 75.2751L83.3992 76H84.2109V75.5ZM102.511 75.5V76H102.825L102.961 75.7174L102.511 75.5ZM136.311 5.5L136.761 5.71741L137.108 5H136.311V5.5ZM79.2109 5.5V5H78.7109V5.5H79.2109ZM79.2109 21.8H111.511V20.8H79.2109V21.8ZM111.064 21.0751L83.7644 75.2751L84.6575 75.7249L111.957 21.5249L111.064 21.0751ZM84.2109 76H102.511V75H84.2109V76ZM102.961 75.7174L136.761 5.71741L135.861 5.28258L102.061 75.2826L102.961 75.7174ZM136.311 5H79.2109V6H136.311V5ZM78.7109 5.5V21.3H79.7109V5.5H78.7109Z" fill="url(#paint0_linear_821_122)"/>
<defs>
<linearGradient id="paint0_linear_821_122" x1="70" y1="-24.5" x2="70.2613" y2="85.5665" gradientUnits="userSpaceOnUse">
<stop offset="0.229167" stop-color="#828282"/>
<stop offset="1" stop-color="#333333" stop-opacity="0"/>
</linearGradient>
</defs>
</svg>
